<svg width="51" height="50" viewBox="0 0 51 50" fill="none" xmlns="http://www.w3.org/2000/svg">
<path d="M41.7913 37.5002H37.6246V19.271L25.1246 27.0835L12.6246 19.271V37.5002H8.45797V12.5002H10.958L25.1246 21.3543L39.2913 12.5002H41.7913V37.5002ZM41.7913 8.3335H8.45797C6.14547 8.3335 4.29131 10.1877 4.29131 12.5002V37.5002C4.29131 38.6052 4.73029 39.665 5.51169 40.4464C6.2931 41.2278 7.3529 41.6668 8.45797 41.6668H41.7913C42.8964 41.6668 43.9562 41.2278 44.7376 40.4464C45.519 39.665 45.958 38.6052 45.958 37.5002V12.5002C45.958 10.1877 44.083 8.3335 41.7913 8.3335Z" fill="#2B4E97"/>
</svg>
