<svg width="1920" height="2730" viewBox="0 0 1920 2730" fill="none" xmlns="http://www.w3.org/2000/svg">
<path opacity="0.35" d="M-283.156 804.08L2068.83 1395.93M-283.156 804.08L2059.49 1406.54M-283.156 804.08L2050.15 1417.16M-283.156 804.08L2040.8 1427.78M-283.156 804.08L2031.46 1438.39M-283.156 804.08L2022.12 1449.01M-283.156 804.08L2012.78 1459.63M-283.156 804.08L2003.43 1470.24M-283.156 804.08L1994.09 1480.86M-283.156 804.08L1984.75 1491.48M-283.156 804.08L1975.41 1502.09M-283.156 804.08L1966.06 1512.71M-283.156 804.08L1956.72 1523.33M-283.156 804.08L1947.38 1533.94M-283.156 804.08L1938.04 1544.56M-283.156 804.08L1928.69 1555.18M-283.156 804.08L1919.35 1565.79M-283.156 804.08L1910.01 1576.41M-283.156 804.08L1900.67 1587.03M-283.156 804.08L1891.32 1597.65M-283.156 804.08L1881.98 1608.26M-283.156 804.08L1872.64 1618.88M-283.156 804.08L1863.3 1629.5M-283.156 804.08L1853.95 1640.11M-283.156 804.08L1844.61 1650.73M-283.156 804.08L1835.27 1661.35M-283.156 804.08L1825.93 1671.96M-283.156 804.08L1816.58 1682.58M-283.156 804.08L1807.24 1693.2M-283.156 804.08L1797.9 1703.81M-283.156 804.08L1788.56 1714.43M-283.156 804.08L1779.21 1725.05M-283.156 804.08L1769.87 1735.66M-283.156 804.08L1760.53 1746.28M-283.156 804.08L1751.19 1756.9M-283.156 804.08L1741.84 1767.51M-283.156 804.08L1732.5 1778.13M-283.156 804.08L1723.16 1788.75M-283.156 804.08L1713.82 1799.36M-283.156 804.08L1704.47 1809.98M-283.156 804.08L1695.13 1820.6M-283.156 804.08L1685.79 1831.22M-283.156 804.08L1676.45 1841.83M-283.156 804.08L1667.1 1852.45M-283.156 804.08L1657.76 1863.07M-283.156 804.08L1648.42 1873.68M-283.156 804.08L1639.08 1884.3M-283.156 804.08L1629.73 1894.92M-283.156 804.08L1620.39 1905.53M-283.156 804.08L1611.05 1916.15M-283.156 804.08L1601.71 1926.77M-283.156 804.08L1592.36 1937.38M-283.156 804.08L1583.02 1948M-283.156 804.08L1573.68 1958.62M-283.156 804.08L1564.34 1969.23M-283.156 804.08L1554.99 1979.85M-283.156 804.08L1545.65 1990.47M-283.156 804.08L1536.31 2001.08M-283.156 804.08L1526.97 2011.7M-283.156 804.08L1517.62 2022.32M-283.156 804.08L1508.28 2032.94M-283.156 804.08L1498.94 2043.55M-283.156 804.08L1489.6 2054.17M-283.156 804.08L1480.25 2064.79M-283.156 804.08L1470.91 2075.4M-283.156 804.08L1461.57 2086.02M-283.156 804.08L1452.23 2096.64M-283.156 804.08L1442.88 2107.25" stroke="#4B83CC"/>
<path opacity="0.35" d="M-1.38911 438.052L2014.46 1786.56M-1.38911 438.052L2002.1 1793.41M-1.38911 438.052L1989.73 1800.27M-1.38911 438.052L1977.36 1807.12M-1.38911 438.052L1964.99 1813.98M-1.38911 438.052L1952.62 1820.83M-1.38911 438.052L1940.25 1827.69M-1.38911 438.052L1927.88 1834.55M-1.38911 438.052L1915.51 1841.4M-1.38911 438.052L1903.14 1848.26M-1.38911 438.052L1890.77 1855.11M-1.38911 438.052L1878.4 1861.97M-1.38911 438.052L1866.03 1868.82M-1.38911 438.052L1853.66 1875.68M-1.38911 438.052L1841.29 1882.53M-1.38911 438.052L1828.92 1889.39M-1.38911 438.052L1816.56 1896.25M-1.38911 438.052L1804.19 1903.1M-1.38911 438.052L1791.82 1909.96M-1.38911 438.052L1779.45 1916.81M-1.38911 438.052L1767.08 1923.67M-1.38911 438.052L1754.71 1930.52M-1.38911 438.052L1742.34 1937.38M-1.38911 438.052L1729.97 1944.24M-1.38911 438.052L1717.6 1951.09M-1.38911 438.052L1705.23 1957.95M-1.38911 438.052L1692.86 1964.8M-1.38911 438.052L1680.49 1971.66M-1.38911 438.052L1668.12 1978.51M-1.38911 438.052L1655.75 1985.37M-1.38911 438.052L1643.38 1992.22M-1.38911 438.052L1631.01 1999.08M-1.38911 438.052L1618.65 2005.94M-1.38911 438.052L1606.28 2012.79M-1.38911 438.052L1593.91 2019.65M-1.38911 438.052L1581.54 2026.5M-1.38911 438.052L1569.17 2033.36M-1.38911 438.052L1556.8 2040.21M-1.38911 438.052L1544.43 2047.07M-1.38911 438.052L1532.06 2053.92M-1.38911 438.052L1519.69 2060.78M-1.38911 438.052L1507.32 2067.64M-1.38911 438.052L1494.95 2074.49M-1.38911 438.052L1482.58 2081.35M-1.38911 438.052L1470.21 2088.2M-1.38911 438.052L1457.84 2095.06M-1.38911 438.052L1445.47 2101.91M-1.38911 438.052L1433.11 2108.77M-1.38911 438.052L1420.74 2115.62M-1.38911 438.052L1408.37 2122.48M-1.38911 438.052L1396 2129.34M-1.38911 438.052L1383.63 2136.19M-1.38911 438.052L1371.26 2143.05M-1.38911 438.052L1358.89 2149.9M-1.38911 438.052L1346.52 2156.76M-1.38911 438.052L1334.15 2163.61M-1.38911 438.052L1321.78 2170.47M-1.38911 438.052L1309.41 2177.33M-1.38911 438.052L1297.04 2184.18M-1.38911 438.052L1284.67 2191.04M-1.38911 438.052L1272.3 2197.89M-1.38911 438.052L1259.93 2204.75M-1.38911 438.052L1247.57 2211.6M-1.38911 438.052L1235.2 2218.46M-1.38911 438.052L1222.83 2225.31M-1.38911 438.052L1210.46 2232.17M-1.38911 438.052L1198.09 2239.03M-1.38911 438.052L1185.72 2245.88" stroke="#4B83CC"/>
<path opacity="0.35" d="M861.319 82.2753L1524.76 2415.08M861.319 82.2753L1510.89 2412.3M861.319 82.2753L1497.03 2409.51M861.319 82.2753L1483.16 2406.73M861.319 82.2753L1469.3 2403.95M861.319 82.2753L1455.43 2401.17M861.319 82.2753L1441.57 2398.39M861.319 82.2753L1427.7 2395.6M861.319 82.2753L1413.83 2392.82M861.319 82.2753L1399.97 2390.04M861.319 82.2753L1386.1 2387.26M861.319 82.2753L1372.24 2384.47M861.319 82.2753L1358.37 2381.69M861.319 82.2753L1344.51 2378.91M861.319 82.2753L1330.64 2376.13M861.319 82.2753L1316.77 2373.34M861.319 82.2753L1302.91 2370.56M861.319 82.2753L1289.04 2367.78M861.319 82.2753L1275.18 2365M861.319 82.2753L1261.31 2362.21M861.319 82.2753L1247.45 2359.43M861.319 82.2753L1233.58 2356.65M861.319 82.2753L1219.71 2353.87M861.319 82.2753L1205.85 2351.08M861.319 82.2753L1191.98 2348.3M861.319 82.2753L1178.12 2345.52M861.319 82.2753L1164.25 2342.74M861.319 82.2753L1150.39 2339.95M861.319 82.2753L1136.52 2337.17M861.319 82.2753L1122.65 2334.39M861.319 82.2753L1108.79 2331.61M861.319 82.2753L1094.92 2328.82M861.319 82.2753L1081.06 2326.04M861.319 82.2753L1067.19 2323.26M861.319 82.2753L1053.33 2320.48M861.319 82.2753L1039.46 2317.69M861.319 82.2753L1025.59 2314.91M861.319 82.2753L1011.73 2312.13M861.319 82.2753L997.863 2309.35M861.319 82.2753L983.997 2306.56M861.319 82.2753L970.131 2303.78M861.319 82.2753L956.266 2301M861.319 82.2753L942.4 2298.22M861.319 82.2753L928.534 2295.43M861.319 82.2753L914.668 2292.65M861.319 82.2753L900.803 2289.87M861.319 82.2753L886.937 2287.09M861.319 82.2753L873.071 2284.3M861.319 82.2753L859.206 2281.52M861.319 82.2753L845.34 2278.74M861.319 82.2753L831.474 2275.96M861.319 82.2753L817.608 2273.17M861.319 82.2753L803.743 2270.39M861.319 82.2753L789.877 2267.61M861.319 82.2753L776.011 2264.83M861.319 82.2753L762.146 2262.04M861.319 82.2753L748.28 2259.26M861.319 82.2753L734.414 2256.48M861.319 82.2753L720.548 2253.7M861.319 82.2753L706.683 2250.92M861.319 82.2753L692.817 2248.13M861.319 82.2753L678.951 2245.35M861.319 82.2753L665.086 2242.57M861.319 82.2753L651.22 2239.79M861.319 82.2753L637.354 2237M861.319 82.2753L623.489 2234.22M861.319 82.2753L609.623 2231.44M861.319 82.2753L595.757 2228.66" stroke="#4B83CC"/>
</svg>
