<svg width="51" height="50" viewBox="0 0 51 50" fill="none" xmlns="http://www.w3.org/2000/svg">
<path d="M46.4583 13.6457C46.4349 12.7469 46.3654 11.8498 46.25 10.9582C46.0944 10.1772 45.8352 9.42048 45.4792 8.70817C45.1068 7.93547 44.6067 7.23114 44 6.62484C43.3877 6.02526 42.6846 5.52607 41.9167 5.14567C41.2034 4.7966 40.4467 4.54437 39.6667 4.39567C38.7835 4.26338 37.8928 4.18684 37 4.1665H14.2708C13.372 4.18991 12.475 4.25945 11.5833 4.37484C10.8023 4.5304 10.0456 4.78964 9.33334 5.14567C8.56064 5.51804 7.85631 6.01811 7.25001 6.62484C6.65043 7.23715 6.15124 7.94024 5.77084 8.70817C5.42176 9.42143 5.16953 10.1781 5.02084 10.9582C4.88855 11.8414 4.81201 12.732 4.79167 13.6248C4.79167 14.0207 4.79167 14.5832 4.79167 14.7498V35.2498C4.79167 35.479 4.79167 35.979 4.79167 36.354C4.81508 37.2528 4.88462 38.1498 5 39.0415C5.15556 39.8225 5.4148 40.5792 5.77084 41.2915C6.14321 42.0642 6.64328 42.7685 7.25001 43.3748C7.86232 43.9744 8.56541 44.4736 9.33334 44.854C10.0466 45.2031 10.8033 45.4553 11.5833 45.604C12.4665 45.7363 13.3572 45.8128 14.25 45.8332H36.9792C37.878 45.8098 38.775 45.7402 39.6667 45.6248C40.4477 45.4693 41.2044 45.21 41.9167 44.854C42.6894 44.4816 43.3937 43.9816 44 43.3748C44.5996 42.7625 45.0988 42.0594 45.4792 41.2915C45.8283 40.5782 46.0805 39.8216 46.2292 39.0415C46.3615 38.1583 46.438 37.2677 46.4583 36.3748C46.4583 35.979 46.4583 35.479 46.4583 35.2498V14.7498C46.4583 14.5832 46.4583 14.0207 46.4583 13.6457ZM26.1042 39.5832C23.6022 39.5708 21.144 38.9258 18.9583 37.7082L11.0417 39.7915L13.125 32.0415C11.7815 29.7841 11.0625 27.21 11.0417 24.5832C11.05 21.6309 11.9317 18.7472 13.5758 16.2951C15.2198 13.843 17.5528 11.9322 20.2807 10.8034C23.0086 9.67463 26.0096 9.37832 28.9056 9.95179C31.8016 10.5253 34.4632 11.9429 36.5551 14.0261C38.647 16.1093 40.0756 18.765 40.6611 21.6586C41.2467 24.5522 40.9628 27.5543 39.8454 30.2869C38.728 33.0195 36.8269 35.3604 34.3817 37.0146C31.9364 38.6689 29.0564 39.5626 26.1042 39.5832ZM26.1042 12.229C23.8954 12.2543 21.7329 12.8644 19.8366 13.9972C17.9403 15.13 16.3781 16.7451 15.309 18.678C14.2398 20.6109 13.702 22.7926 13.7502 25.0009C13.7984 27.2093 14.4309 29.3654 15.5833 31.2498L15.875 31.729L14.625 36.2915L19.375 34.9998L19.8333 35.2707C21.7283 36.3868 23.8842 36.9833 26.0833 36.9998C29.3985 36.9998 32.578 35.6829 34.9222 33.3387C37.2664 30.9945 38.5833 27.815 38.5833 24.4998C38.5833 21.1846 37.2664 18.0052 34.9222 15.661C32.578 13.3168 29.3985 11.9998 26.0833 11.9998L26.1042 12.229ZM33.3958 29.979C33.123 30.4341 32.7576 30.8269 32.3234 31.132C31.8891 31.437 31.3957 31.6475 30.875 31.7498C30.097 31.892 29.296 31.842 28.5417 31.604C27.832 31.3821 27.1363 31.1178 26.4583 30.8123C23.8828 29.52 21.6863 27.5819 20.0833 25.1873C19.2123 24.0779 18.6837 22.7385 18.5625 21.3332C18.5501 20.7494 18.6605 20.1695 18.8866 19.6312C19.1127 19.0928 19.4495 18.608 19.875 18.2082C20.0003 18.0661 20.1541 17.9518 20.3264 17.8729C20.4986 17.7939 20.6855 17.752 20.875 17.7498H21.4583C21.6875 17.7498 22 17.7498 22.2917 18.3957C22.5833 19.0415 23.3542 20.979 23.4583 21.1665C23.5095 21.2664 23.5362 21.3771 23.5362 21.4894C23.5362 21.6017 23.5095 21.7124 23.4583 21.8123C23.3662 22.0387 23.2398 22.2495 23.0833 22.4373C22.8958 22.6665 22.6875 22.9373 22.5208 23.104C22.3542 23.2707 22.1458 23.479 22.3542 23.854C22.921 24.8106 23.6227 25.6807 24.4375 26.4373C25.3249 27.2214 26.3394 27.8485 27.4375 28.2915C27.8125 28.479 28.0417 28.4582 28.25 28.2915C28.4583 28.1248 29.1875 27.2082 29.4375 26.8332C29.6875 26.4582 29.9375 26.5207 30.2708 26.6457C30.6042 26.7707 32.4583 27.6665 32.8333 27.854C33.2083 28.0415 33.4375 28.1248 33.5417 28.2915C33.632 28.8368 33.5818 29.396 33.3958 29.9165V29.979Z" fill="#00B947"/>
</svg>
