<svg width="51" height="50" viewBox="0 0 51 50" fill="none" xmlns="http://www.w3.org/2000/svg">
<path d="M48.7917 20.2293C48.8947 17.2473 48.2426 14.2876 46.8958 11.6251C45.9821 10.5326 44.714 9.79532 43.3125 9.54176C37.5157 9.01577 31.6949 8.80018 25.875 8.89592C20.0764 8.79584 14.2765 9.00446 8.50001 9.52092C7.35796 9.72867 6.30108 10.2643 5.45834 11.0626C3.58334 12.7918 3.37501 15.7501 3.16667 18.2501C2.86441 22.745 2.86441 27.2552 3.16667 31.7501C3.22694 33.1572 3.43645 34.5539 3.79167 35.9168C4.04287 36.969 4.55109 37.9425 5.27084 38.7501C6.11931 39.5906 7.20081 40.1568 8.37501 40.3751C12.8665 40.9295 17.3921 41.1593 21.9167 41.0626C29.2083 41.1668 35.6042 41.0626 43.1667 40.4793C44.3697 40.2744 45.4817 39.7075 46.3542 38.8543C46.9374 38.2708 47.3731 37.5565 47.625 36.7709C48.3701 34.4847 48.736 32.092 48.7083 29.6876C48.7917 28.5209 48.7917 21.4793 48.7917 20.2293ZM21.1667 30.9376V18.0418L33.5 24.5209C30.0417 26.4376 25.4792 28.6043 21.1667 30.9376Z" fill="#FF0000"/>
</svg>
