<svg width="185" height="82" viewBox="0 0 185 82" fill="none" xmlns="http://www.w3.org/2000/svg">
<g clip-path="url(#clip0_3_254)">
<path d="M25.4757 65.7875C25.4757 63.661 27.2078 61.9355 29.3459 61.9355C31.4839 61.9355 33.2188 63.6583 33.2188 65.7875C33.2188 67.9167 31.4867 69.6367 29.3459 69.6367C27.205 69.6367 25.4757 67.9139 25.4757 65.7875Z" fill="#FEC701"/>
<path d="M37.7034 13.1072C37.7034 10.0958 36.0992 7.46058 33.6915 6.0033V14.5174L29.3459 16.5969L24.9975 14.5174V6.0033C22.5898 7.46058 20.9856 10.0958 20.9856 13.1072C20.9856 16.1185 22.4841 18.5685 24.7556 20.0534V35.3451H34.5144C47.8681 35.3451 58.6918 46.1101 58.6918 59.3915V61.2138C58.6918 72.695 49.3333 82.0028 37.7868 82.0028H8.78569C3.9341 82.0028 0 78.09 0 73.2646V67.4549C0 57.5471 8.07672 49.5141 18.0385 49.5141H24.7556V58.4209C21.7418 60.2792 20.0625 63.8684 20.8132 67.5213C21.2358 69.562 22.3813 71.3843 24.0411 72.6563C25.5564 73.7569 26.8436 75.1339 27.8362 76.7129L28.5118 77.8328C28.787 78.2891 29.382 78.4356 29.838 78.1619C29.9742 78.0789 30.0882 77.9683 30.1688 77.8328L30.8194 76.7571C31.6869 75.2445 32.8657 73.9311 34.2837 72.9079C38.24 70.2008 39.2409 64.8141 36.519 60.8764C36.0575 60.21 35.5042 59.61 34.8759 59.0956V59.1012C34.5728 58.8551 34.2586 58.6311 33.9306 58.432V45.7258H24.1718C10.8209 45.723 0 34.958 0 21.6766V20.789C0 9.30775 9.35843 0 20.9022 0H49.9033C54.7577 0 58.6918 3.91279 58.6918 8.73811V13.7985C58.6918 23.7063 50.615 31.7393 40.6505 31.7393H33.9333V20.0506C36.2048 18.5657 37.7034 16.0079 37.7034 13.1044V13.1072Z" fill="#FEC701"/>
<path d="M86.2527 43.0131C85.8412 42.7808 85.3713 42.6619 84.8737 42.6342C84.3454 42.6647 83.8756 42.7808 83.4363 43.0131C83.0554 43.2758 82.7329 43.627 82.4687 44.0362C82.2046 44.4731 82.0573 44.9709 82.0573 45.4658C82.0573 45.9912 82.2046 46.4586 82.4687 46.8955C82.7023 47.3324 83.0276 47.6836 83.4363 47.9462C83.8756 48.2089 84.3454 48.3251 84.8737 48.3251C85.3713 48.3251 85.8412 48.2089 86.2527 47.9462C86.6642 47.6836 86.9867 47.3324 87.2202 46.8955C87.4538 46.4586 87.5733 45.9912 87.5733 45.4658C87.5733 44.9709 87.4566 44.4731 87.2202 44.0362C86.9867 43.627 86.6614 43.2758 86.2527 43.0131Z" fill="white"/>
<path d="M112.499 66.7525C112.118 66.4898 111.648 66.3433 111.12 66.3156C110.622 66.3461 110.121 66.4898 109.682 66.7525C109.301 66.9572 108.979 67.2779 108.715 67.7176C108.451 68.1545 108.334 68.6523 108.334 69.1472C108.334 69.6726 108.451 70.1704 108.715 70.6073C108.979 71.0442 109.301 71.3677 109.682 71.6C110.121 71.8627 110.622 72.0092 111.12 72.0369C111.648 72.0065 112.118 71.8323 112.499 71.6C112.91 71.3373 113.233 71.0442 113.466 70.6073C113.672 70.1704 113.819 69.6726 113.847 69.1472C113.816 68.6523 113.672 68.1545 113.466 67.7176C113.233 67.2807 112.907 66.9572 112.499 66.7525Z" fill="white"/>
<path d="M116.93 51.4221C116.93 55.0142 116.872 56.9996 116.783 57.4089C116.577 58.2854 115.843 58.7527 114.581 58.8108C114.258 58.8412 109.885 58.8689 106.507 58.8689H94.6157V48.9998H89.5667V60.2985C89.5667 62.0212 89.0691 63.3071 88.1293 64.1809C87.3064 64.9413 86.3082 65.3478 85.0766 65.2621C83.8727 65.204 82.8162 64.7948 81.9654 64.0371C81.0257 63.1909 80.528 62.1678 80.528 60.9705V52.0637H75.4207V60.152C75.4207 62.5743 76.3298 64.6482 78.0341 66.2825C79.5605 67.8006 81.5289 68.6771 83.8477 68.9979C86.1664 69.3491 88.2517 69.056 90.1311 68.0937C92.1858 67.0125 93.537 65.3782 94.2126 63.1605H106.513C119.43 63.1605 121.985 63.3347 121.985 56.6484V48.939H116.936V51.4221H116.93Z" fill="white"/>
<path d="M119.513 66.7525C119.132 66.4898 118.662 66.3433 118.134 66.3156C117.637 66.3461 117.136 66.4898 116.697 66.7525C116.316 66.9572 115.993 67.2779 115.729 67.7176C115.465 68.1545 115.348 68.6523 115.348 69.1472C115.348 69.6726 115.465 70.1704 115.729 70.6073C115.993 71.0442 116.316 71.3677 116.697 71.6C117.136 71.8627 117.637 72.0092 118.134 72.0369C118.662 72.0065 119.132 71.8323 119.513 71.6C119.925 71.3373 120.247 71.0442 120.481 70.6073C120.687 70.1704 120.834 69.6726 120.862 69.1472C120.831 68.6523 120.687 68.1545 120.481 67.7176C120.247 67.2807 119.922 66.9572 119.513 66.7525Z" fill="white"/>
<path d="M176.82 49.0275C174.972 48.5906 173.092 48.7343 171.185 49.4063C169.219 50.0782 167.632 51.1871 166.369 52.7633C164.99 54.486 164.198 56.5019 164.051 58.8661H163.581C162.964 58.7776 162.613 58.4569 162.494 57.9038V52.0941H157.414V58.8689H133.985C131.285 58.8689 129.992 57.4089 129.992 54.4611V36.2134H124.885V53.673C124.885 57.5554 125.588 60.1547 127.028 61.4986C128.174 62.6075 130.287 63.1633 133.312 63.1633H162.494V62.5218L162.641 62.696C162.964 62.9891 163.492 63.1633 164.167 63.1633H183.104L183.368 61.5567C183.457 60.9732 183.515 60.3013 183.574 59.5713C183.868 56.477 183.251 53.9357 181.636 51.9503C180.404 50.4626 178.789 49.4671 176.82 49.0302V49.0275ZM179.52 58.8689H168.188C167.776 58.8689 167.69 58.4596 167.924 57.6135C168.157 56.7673 168.627 55.8908 169.303 55.0142C170.037 54.0519 171.065 53.438 172.355 53.1449C173.587 52.8518 174.821 52.8822 176.053 53.261C177.315 53.6399 178.255 54.3118 178.931 55.2465C179.634 56.2696 179.84 57.4946 179.517 58.8661L179.52 58.8689Z" fill="white"/>
<path d="M78.7042 33.3708C80.1277 33.9957 81.8015 34.3082 83.7171 34.3082C85.6327 34.3082 87.4927 34.0095 89.0163 33.4122C90.5427 32.8149 91.7187 31.9854 92.55 30.918C93.3813 29.8534 93.7956 28.6284 93.7956 27.2458C93.7956 25.7498 93.4342 24.5414 92.7113 23.615C91.9884 22.6887 91.0626 21.9918 89.9338 21.5245C88.8078 21.0572 87.4788 20.6922 85.9552 20.4378L84.3065 20.153C82.7134 19.8737 81.4929 19.5004 80.6477 19.0331C79.8024 18.5657 79.3771 17.8827 79.3771 16.9923C79.3771 16.1545 79.7663 15.4936 80.5476 15.0097C81.3288 14.5257 82.3686 14.2824 83.6698 14.2824C84.6235 14.2824 85.4492 14.429 86.1526 14.7248C86.8532 15.0207 87.3898 15.4383 87.7596 15.9802C88.1294 16.5222 88.3157 17.1555 88.3157 17.88C88.3157 18.2256 88.2767 18.5713 88.1989 18.9169L92.8753 18.8837C92.9421 18.4164 92.9754 17.9629 92.9754 17.5288C92.9754 16.0107 92.6056 14.6806 91.8661 13.5386C91.1265 12.3937 90.07 11.5144 88.7021 10.895C87.3342 10.2756 85.7244 9.96588 83.8728 9.96588C82.0211 9.96588 80.3891 10.259 78.9767 10.8452C77.5643 11.4315 76.4689 12.2583 75.696 13.3312C74.9231 14.4013 74.5338 15.6346 74.5338 17.0283C74.5338 18.4219 74.8313 19.6303 75.4263 20.5843C76.0213 21.5384 76.9304 22.3043 78.151 22.885C79.3743 23.4657 80.9674 23.9164 82.9303 24.24L84.579 24.5082C85.9802 24.7322 87.0618 25.053 87.818 25.4705C88.5742 25.8881 88.9524 26.4936 88.9524 27.2873C88.9524 27.8348 88.7494 28.3104 88.3463 28.7169C87.9431 29.1234 87.3732 29.4386 86.6392 29.6626C85.9052 29.8866 85.0544 29.9972 84.0896 29.9972C83.047 29.9972 82.1462 29.8589 81.39 29.5796C80.6337 29.3003 80.0527 28.9021 79.6495 28.3823C79.2464 27.8624 79.0434 27.2541 79.0434 26.5489C79.0434 26.2365 79.0824 25.9295 79.1602 25.6281H74.3142C74.2697 25.9517 74.2474 26.3194 74.2474 26.7314C74.2474 28.2496 74.6339 29.5796 75.4068 30.7217C76.1797 31.8665 77.2807 32.7486 78.7042 33.3735V33.3708Z" fill="white"/>
<path d="M102.712 28.9879H111.748L113.413 33.9736H118.662L109.98 10.295H104.477L95.8113 33.9736H101.06L102.709 28.9879H102.712ZM107.172 15.1313H107.305L110.569 25.0723H103.888L107.169 15.1313H107.172Z" fill="white"/>
<path d="M125.038 33.9736H129.884V25.7913L137.927 10.295H132.675L130.37 15.383L127.529 21.8923H127.409L124.551 15.383L122.263 10.295H116.994L125.038 25.7913V33.9736Z" fill="white"/>
<path d="M147.783 33.9736H152.629V25.7913L160.673 10.295H155.423L153.118 15.383L150.274 21.8923H150.157L147.297 15.383L145.008 10.295H139.743L147.783 25.7913V33.9736Z" fill="white"/>
<path d="M180.154 10.295V26.1591H180.071L177.363 22.1937L168.933 10.295H164.27V33.9736H169.116V18.0929H169.219L172.13 22.3596L180.221 33.9736H185V10.295H180.154Z" fill="white"/>
</g>
<defs>
<clipPath id="clip0_3_254">
<rect width="185" height="82" fill="white"/>
</clipPath>
</defs>
</svg>
