<svg width="60" height="60" viewBox="0 0 60 60" fill="none" xmlns="http://www.w3.org/2000/svg">
<path d="M34.9996 28.7498C35.8203 28.7498 36.633 28.5882 37.3913 28.2741C38.1496 27.96 38.8386 27.4996 39.419 26.9192C39.9993 26.3389 40.4597 25.6499 40.7738 24.8916C41.0879 24.1333 41.2496 23.3206 41.2496 22.4998C41.2496 20.8422 40.5911 19.2525 39.419 18.0804C38.2469 16.9083 36.6572 16.2498 34.9996 16.2498C33.342 16.2498 31.7522 16.9083 30.5801 18.0804C29.408 19.2525 28.7496 20.8422 28.7496 22.4998C28.7496 23.3206 28.9112 24.1333 29.2253 24.8916C29.5394 25.6499 29.9998 26.3389 30.5801 26.9192C31.7522 28.0913 33.342 28.7498 34.9996 28.7498ZM34.9996 4.99982C44.6496 4.99982 52.4996 12.8248 52.4996 22.4998C52.4996 35.6248 34.9996 54.9998 34.9996 54.9998C34.9996 54.9998 17.4996 35.6248 17.4996 22.4998C17.4996 17.8585 19.3433 13.4073 22.6252 10.1254C25.9071 6.84356 30.3583 4.99982 34.9996 4.99982ZM12.4996 22.4998C12.4996 33.7498 25.1996 49.1498 27.4996 52.0248L24.9996 54.9998C24.9996 54.9998 7.49957 35.6248 7.49957 22.4998C7.49957 14.5748 12.7746 7.87482 19.9996 5.72482C15.3996 9.84982 12.4996 15.8248 12.4996 22.4998Z" fill="white"/>
</svg>
